<?xml version="1.0" encoding="UTF-8"?><svg id="Laag_1" xmlns="http://www.w3.org/2000/svg" viewBox="0 0 425.16 58.11"><defs><style>.cls-1{fill:#fff;}.cls-2{fill:#fe9d2b;}.cls-3{fill:#1a1818;}.cls-4{isolation:isolate;}</style></defs><g class="cls-4"><path class="cls-1" d="M39.19,10.29h-13.98V57.33H13.75V10.29H0V.78H39.19V10.29Z"/><path class="cls-1" d="M84.05,.78V39.93c-.05,5.88-1.67,10.38-4.86,13.5-3.19,3.12-7.76,4.68-13.71,4.68s-10.69-1.58-13.89-4.74c-3.2-3.16-4.8-7.73-4.8-13.71V.78h11.5V39.7c0,3.21,.52,5.5,1.55,6.88,1.04,1.37,2.91,2.06,5.63,2.06s4.58-.68,5.59-2.04,1.53-3.59,1.55-6.7V.78h11.42Z"/><path class="cls-1" d="M111.36,36.67h-5.67v20.66h-11.42V.78h18.22c5.72,0,10.14,1.48,13.26,4.45,3.12,2.97,4.68,7.18,4.68,12.64,0,7.51-2.73,12.77-8.2,15.77l9.91,23.15v.54h-12.27l-8.51-20.66Zm-5.67-9.52h6.49c2.28,0,3.99-.76,5.13-2.27,1.14-1.51,1.71-3.54,1.71-6.08,0-5.67-2.21-8.51-6.64-8.51h-6.68V27.15Z"/><path class="cls-1" d="M139.79,57.33V.78h17.48c5.9,0,10.39,1.31,13.46,3.94,3.07,2.63,4.6,6.48,4.6,11.56,0,2.87-.63,5.35-1.9,7.42-1.27,2.07-3,3.59-5.2,4.54,2.54,.73,4.49,2.18,5.87,4.37,1.37,2.19,2.06,4.89,2.06,8.1,0,5.49-1.51,9.63-4.53,12.43-3.02,2.8-7.39,4.2-13.11,4.2h-18.72Zm11.42-32.9h5.94c4.48,0,6.72-2.32,6.72-6.95,0-2.56-.52-4.4-1.55-5.52-1.04-1.11-2.72-1.67-5.05-1.67h-6.06v14.14Zm0,8.31v15.11h7.3c2.05,0,3.6-.63,4.66-1.9,1.06-1.27,1.59-3.07,1.59-5.4,0-5.07-1.84-7.68-5.52-7.81h-8.04Z"/></g><g class="cls-4"><path class="cls-1" d="M289.99,10.29h-13.98V57.33h-11.46V10.29h-13.75V.78h39.19V10.29Z"/><path class="cls-1" d="M327.28,32.86h-17.79v14.99h21.05v9.48h-32.47V.78h32.4V10.29h-20.98v13.36h17.79v9.21Z"/><path class="cls-1" d="M376.96,38.49c-.28,6.45-2.1,11.33-5.44,14.64-3.34,3.32-8.05,4.97-14.14,4.97-6.4,0-11.3-2.1-14.7-6.31-3.41-4.21-5.11-10.21-5.11-18v-9.52c0-7.77,1.76-13.76,5.28-17.96,3.52-4.21,8.42-6.31,14.68-6.31s10.84,1.72,14.04,5.17c3.2,3.44,5.02,8.39,5.46,14.84h-11.46c-.1-3.99-.72-6.74-1.85-8.25s-3.19-2.27-6.2-2.27-5.22,1.07-6.49,3.2c-1.27,2.14-1.94,5.65-2.02,10.55v10.68c0,5.62,.63,9.48,1.88,11.58,1.26,2.1,3.41,3.15,6.47,3.15s5.08-.73,6.21-2.19c1.14-1.46,1.79-4.11,1.94-7.94h11.42Z"/><path class="cls-1" d="M425.16,57.33h-11.38v-24.2h-16.86v24.2h-11.42V.78h11.42V23.66h16.86V.78h11.38V57.33Z"/></g><path class="cls-2" d="M220.55,6.43c-3.63-4.29-8.58-6.43-14.88-6.43s-11.39,2.18-14.99,6.55c-3.6,4.36-5.4,10.43-5.4,18.2v9.67c.05,7.48,1.89,13.3,5.52,17.46,3.63,4.16,8.61,6.23,14.95,6.23s11.35-2.1,14.94-6.29c3.59-4.2,5.38-10.09,5.38-17.67v-9.67c-.05-7.74-1.89-13.76-5.52-18.04Z"/><path id="Path_23" class="cls-3" d="M205.97,47.95s19.12-.16,8.51-23.58c0,0-2.03,5.07-3.03,5.21s2.85-11.55-6.05-18.72c0,0-.16,5.17-3.13,8.96-1.8,2.38-2.86,5.24-3.05,8.23,0,0-2.81-2.95-2.49-5.59s-9.37,25.58,9.23,25.5"/></svg>